<svg version="1.2" xmlns="http://www.w3.org/2000/svg" viewBox="0 0 1000 1000" width="1000" height="1000"><style>.a{fill:#fff}</style><path  d="m0 75c0-41.4 33.6-75 75-75h850c41.4 0 75 33.6 75 75v850c0 41.4-33.6 75-75 75h-850c-41.4 0-75-33.6-75-75z"/><path class="a" d="m300 133.3c8.9-0.1 17.5 3.4 23.9 9.6 6.3 6.3 9.9 14.8 9.9 23.8 0 8.9-3.6 17.4-9.9 23.7-6.4 6.3-15 9.7-23.9 9.6h-133.3c-9 0.1-17.6-3.3-23.9-9.6-6.4-6.3-9.9-14.8-9.9-23.7 0-9 3.5-17.5 9.9-23.8 6.3-6.2 14.9-9.7 23.9-9.6zm0 133.4c8.9-0.2 17.5 3.3 23.8 9.6 6.4 6.2 10 14.8 10 23.7 0 8.9-3.6 17.5-10 23.7-6.3 6.3-14.9 9.8-23.8 9.6h-133.4c-8.9 0.2-17.5-3.3-23.8-9.6-6.4-6.2-10-14.8-10-23.7 0-8.9 3.6-17.5 10-23.7 6.3-6.3 14.9-9.8 23.8-9.6zm533.4 0c8.9-0.2 17.5 3.3 23.8 9.6 6.4 6.2 10 14.8 10 23.7 0 8.9-3.6 17.5-10 23.7-6.3 6.3-14.9 9.8-23.8 9.6h-133.4c-8.9 0.2-17.5-3.3-23.8-9.6-6.4-6.2-10-14.8-10-23.7 0-8.9 3.6-17.5 10-23.7 6.3-6.3 14.9-9.8 23.8-9.6zm-533.3 133.3c8.9-0.1 17.5 3.3 23.9 9.6 6.3 6.3 9.9 14.8 9.9 23.7 0 9-3.6 17.5-9.9 23.8-6.4 6.2-15 9.7-23.9 9.6h-133.3c-9 0.1-17.6-3.4-23.9-9.6-6.4-6.3-9.9-14.8-9.9-23.8 0-8.9 3.5-17.4 9.9-23.7 6.3-6.3 14.9-9.7 23.9-9.6zm533.3 0c8.9-0.1 17.5 3.3 23.9 9.6 6.3 6.3 9.9 14.8 9.9 23.7 0 9-3.6 17.5-9.9 23.8-6.4 6.2-15 9.7-23.9 9.6h-133.3c-9 0.1-17.6-3.4-23.9-9.6-6.4-6.3-9.9-14.8-9.9-23.8 0-8.9 3.5-17.4 9.9-23.7 6.3-6.3 14.9-9.7 23.9-9.6zm-533.4 133.3c9-0.1 17.6 3.4 23.9 9.6 6.4 6.3 9.9 14.8 9.9 23.8 0 8.9-3.5 17.4-9.9 23.7-6.3 6.3-14.9 9.7-23.9 9.6h-133.3c-8.9 0.1-17.5-3.3-23.9-9.6-6.3-6.3-9.9-14.8-9.9-23.7 0-9 3.6-17.5 9.9-23.8 6.4-6.2 15-9.7 23.9-9.6zm266.7 0c8.9-0.1 17.5 3.4 23.8 9.6 6.4 6.3 10 14.8 10 23.8 0 8.9-3.6 17.4-10 23.7-6.3 6.3-14.9 9.7-23.8 9.6h-133.4c-8.9 0.1-17.5-3.3-23.8-9.6-6.4-6.3-10-14.8-10-23.7 0-9 3.6-17.5 10-23.8 6.3-6.2 14.9-9.7 23.8-9.6zm266.7 0c8.9-0.1 17.5 3.4 23.9 9.6 6.3 6.3 9.9 14.8 9.9 23.8 0 8.9-3.6 17.4-9.9 23.7-6.4 6.3-15 9.7-23.9 9.6h-133.3c-9 0.1-17.6-3.3-23.9-9.6-6.4-6.3-9.9-14.8-9.9-23.7 0-9 3.5-17.5 9.9-23.8 6.3-6.2 14.9-9.7 23.9-9.6zm-533.4 133.4c9-0.2 17.6 3.3 23.9 9.6 6.4 6.2 9.9 14.8 9.9 23.7 0 8.9-3.5 17.5-9.9 23.7-6.3 6.3-14.9 9.8-23.9 9.6h-133.3c-8.9 0.2-17.5-3.3-23.9-9.6-6.3-6.2-9.9-14.8-9.9-23.7 0-8.9 3.6-17.5 9.9-23.7 6.4-6.3 15-9.8 23.9-9.6zm266.7 0c8.9-0.2 17.5 3.3 23.8 9.6 6.4 6.2 10 14.8 10 23.7 0 8.9-3.6 17.5-10 23.7-6.3 6.3-14.9 9.8-23.8 9.6h-133.4c-8.9 0.2-17.5-3.3-23.8-9.6-6.4-6.2-10-14.8-10-23.7 0-8.9 3.6-17.5 10-23.7 6.3-6.3 14.9-9.8 23.8-9.6zm266.7 0c8.9-0.2 17.5 3.3 23.9 9.6 6.3 6.2 9.9 14.8 9.9 23.7 0 8.9-3.6 17.5-9.9 23.7-6.4 6.3-15 9.8-23.9 9.6h-133.3c-9 0.2-17.6-3.3-23.9-9.6-6.4-6.2-9.9-14.8-9.9-23.7 0-8.9 3.5-17.5 9.9-23.7 6.3-6.3 14.9-9.8 23.9-9.6zm-533.4 133.3c9-0.1 17.6 3.3 23.9 9.6 6.4 6.3 9.9 14.8 9.9 23.7 0 9-3.5 17.5-9.9 23.8-6.3 6.2-14.9 9.7-23.9 9.6h-133.3c-8.9 0.1-17.5-3.4-23.9-9.6-6.3-6.3-9.9-14.8-9.9-23.8 0-8.9 3.6-17.4 9.9-23.7 6.4-6.3 15-9.7 23.9-9.6zm266.7 0c8.9-0.1 17.5 3.3 23.8 9.6 6.4 6.3 10 14.8 10 23.7 0 9-3.6 17.5-10 23.8-6.3 6.2-14.9 9.7-23.8 9.6h-133.4c-8.9 0.1-17.5-3.4-23.8-9.6-6.4-6.3-10-14.8-10-23.8 0-8.9 3.6-17.4 10-23.7 6.3-6.3 14.9-9.7 23.8-9.6zm266.7 0c8.9-0.1 17.5 3.3 23.9 9.6 6.3 6.3 9.9 14.8 9.9 23.7 0 9-3.6 17.5-9.9 23.8-6.4 6.2-15 9.7-23.9 9.6h-133.3c-9 0.1-17.6-3.4-23.9-9.6-6.4-6.3-9.9-14.8-9.9-23.8 0-8.9 3.5-17.4 9.9-23.7 6.3-6.3 14.9-9.7 23.9-9.6z"/></svg>