<svg xmlns="http://www.w3.org/2000/svg" width="1000" height="1000" version="1.2"><path d="M0 75C0 33.6 33.6 0 75 0h850c41.4 0 75 33.6 75 75v850c0 41.4-33.6 75-75 75H75c-41.4 0-75-33.6-75-75z"/><path d="M300 133.3c8.9-.1 17.5 3.4 23.9 9.6 6.3 6.3 9.9 14.8 9.9 23.8 0 8.9-3.6 17.4-9.9 23.7-6.4 6.3-15 9.7-23.9 9.6H166.7c-9 .1-17.6-3.3-23.9-9.6-6.4-6.3-9.9-14.8-9.9-23.7 0-9 3.5-17.5 9.9-23.8 6.3-6.2 14.9-9.7 23.9-9.6zm0 133.4c8.9-.2 17.5 3.3 23.8 9.6 6.4 6.2 10 14.8 10 23.7 0 8.9-3.6 17.5-10 23.7-6.3 6.3-14.9 9.8-23.8 9.6H166.6c-8.9.2-17.5-3.3-23.8-9.6-6.4-6.2-10-14.8-10-23.7 0-8.9 3.6-17.5 10-23.7 6.3-6.3 14.9-9.8 23.8-9.6zm533.4 0c8.9-.2 17.5 3.3 23.8 9.6 6.4 6.2 10 14.8 10 23.7 0 8.9-3.6 17.5-10 23.7-6.3 6.3-14.9 9.8-23.8 9.6H700c-8.9.2-17.5-3.3-23.8-9.6-6.4-6.2-10-14.8-10-23.7 0-8.9 3.6-17.5 10-23.7 6.3-6.3 14.9-9.8 23.8-9.6zM300.1 400c8.9-.1 17.5 3.3 23.9 9.6 6.3 6.3 9.9 14.8 9.9 23.7 0 9-3.6 17.5-9.9 23.8-6.4 6.2-15 9.7-23.9 9.6H166.8c-9 .1-17.6-3.4-23.9-9.6-6.4-6.3-9.9-14.8-9.9-23.8 0-8.9 3.5-17.4 9.9-23.7 6.3-6.3 14.9-9.7 23.9-9.6zm533.3 0c8.9-.1 17.5 3.3 23.9 9.6 6.3 6.3 9.9 14.8 9.9 23.7 0 9-3.6 17.5-9.9 23.8-6.4 6.2-15 9.7-23.9 9.6H700.1c-9 .1-17.6-3.4-23.9-9.6-6.4-6.3-9.9-14.8-9.9-23.8 0-8.9 3.5-17.4 9.9-23.7 6.3-6.3 14.9-9.7 23.9-9.6zM300 533.3c9-.1 17.6 3.4 23.9 9.6 6.4 6.3 9.9 14.8 9.9 23.8 0 8.9-3.5 17.4-9.9 23.7-6.3 6.3-14.9 9.7-23.9 9.6H166.7c-8.9.1-17.5-3.3-23.9-9.6-6.3-6.3-9.9-14.8-9.9-23.7 0-9 3.6-17.5 9.9-23.8 6.4-6.2 15-9.7 23.9-9.6zm266.7 0c8.9-.1 17.5 3.4 23.8 9.6 6.4 6.3 10 14.8 10 23.8 0 8.9-3.6 17.4-10 23.7-6.3 6.3-14.9 9.7-23.8 9.6H433.3c-8.9.1-17.5-3.3-23.8-9.6-6.4-6.3-10-14.8-10-23.7 0-9 3.6-17.5 10-23.8 6.3-6.2 14.9-9.7 23.8-9.6zm266.7 0c8.9-.1 17.5 3.4 23.9 9.6 6.3 6.3 9.9 14.8 9.9 23.8 0 8.9-3.6 17.4-9.9 23.7-6.4 6.3-15 9.7-23.9 9.6H700.1c-9 .1-17.6-3.3-23.9-9.6-6.4-6.3-9.9-14.8-9.9-23.7 0-9 3.5-17.5 9.9-23.8 6.3-6.2 14.9-9.7 23.9-9.6zM300 666.7c9-.2 17.6 3.3 23.9 9.6 6.4 6.2 9.9 14.8 9.9 23.7 0 8.9-3.5 17.5-9.9 23.7-6.3 6.3-14.9 9.8-23.9 9.6H166.7c-8.9.2-17.5-3.3-23.9-9.6-6.3-6.2-9.9-14.8-9.9-23.7 0-8.9 3.6-17.5 9.9-23.7 6.4-6.3 15-9.8 23.9-9.6zm266.7 0c8.9-.2 17.5 3.3 23.8 9.6 6.4 6.2 10 14.8 10 23.7 0 8.9-3.6 17.5-10 23.7-6.3 6.3-14.9 9.8-23.8 9.6H433.3c-8.9.2-17.5-3.3-23.8-9.6-6.4-6.2-10-14.8-10-23.7 0-8.9 3.6-17.5 10-23.7 6.3-6.3 14.9-9.8 23.8-9.6zm266.7 0c8.9-.2 17.5 3.3 23.9 9.6 6.3 6.2 9.9 14.8 9.9 23.7 0 8.9-3.6 17.5-9.9 23.7-6.4 6.3-15 9.8-23.9 9.6H700.1c-9 .2-17.6-3.3-23.9-9.6-6.4-6.2-9.9-14.8-9.9-23.7 0-8.9 3.5-17.5 9.9-23.7 6.3-6.3 14.9-9.8 23.9-9.6zM300 800c9-.1 17.6 3.3 23.9 9.6 6.4 6.3 9.9 14.8 9.9 23.7 0 9-3.5 17.5-9.9 23.8-6.3 6.2-14.9 9.7-23.9 9.6H166.7c-8.9.1-17.5-3.4-23.9-9.6-6.3-6.3-9.9-14.8-9.9-23.8 0-8.9 3.6-17.4 9.9-23.7 6.4-6.3 15-9.7 23.9-9.6zm266.7 0c8.9-.1 17.5 3.3 23.8 9.6 6.4 6.3 10 14.8 10 23.7 0 9-3.6 17.5-10 23.8-6.3 6.2-14.9 9.7-23.8 9.6H433.3c-8.9.1-17.5-3.4-23.8-9.6-6.4-6.3-10-14.8-10-23.8 0-8.9 3.6-17.4 10-23.7 6.3-6.3 14.9-9.7 23.8-9.6zm266.7 0c8.9-.1 17.5 3.3 23.9 9.6 6.3 6.3 9.9 14.8 9.9 23.7 0 9-3.6 17.5-9.9 23.8-6.4 6.2-15 9.7-23.9 9.6H700.1c-9 .1-17.6-3.4-23.9-9.6-6.4-6.3-9.9-14.8-9.9-23.8 0-8.9 3.5-17.4 9.9-23.7 6.3-6.3 14.9-9.7 23.9-9.6z" style="fill:#fff"/></svg>