<svg xmlns="http://www.w3.org/2000/svg" width="1000" height="1000" version="1.2"><path fill-rule="evenodd" d="M1000 0v1000H0V0z"/><path d="M384.7 288.1c5.2-.1 10.1 1.9 13.8 5.5 3.6 3.6 5.7 8.5 5.7 13.8 0 5.1-2.1 10-5.7 13.6-3.7 3.7-8.6 5.7-13.8 5.6h-77c-5.2.1-10.2-1.9-13.8-5.6-3.7-3.6-5.7-8.5-5.7-13.6 0-5.3 2-10.2 5.7-13.8 3.6-3.6 8.6-5.6 13.8-5.5zm0 77c5.1-.1 10.1 1.9 13.7 5.6 3.8 3.5 5.8 8.5 5.8 13.6 0 5.2-2 10.1-5.8 13.8-3.6 3.6-8.6 5.6-13.7 5.5h-77.1c-5.1.1-10.1-1.9-13.7-5.5-3.7-3.7-5.8-8.6-5.8-13.8 0-5.1 2.1-10.1 5.8-13.6 3.6-3.7 8.6-5.7 13.7-5.6zm308.1 0c5.2-.1 10.2 1.9 13.8 5.6 3.7 3.5 5.8 8.5 5.8 13.6 0 5.2-2.1 10.1-5.8 13.8-3.6 3.6-8.6 5.6-13.8 5.5h-77c-5.2.1-10.1-1.9-13.7-5.5-3.7-3.7-5.8-8.6-5.8-13.8 0-5.1 2.1-10.1 5.8-13.6 3.6-3.7 8.5-5.7 13.7-5.6zm-308 77.1c5.1-.1 10 1.8 13.8 5.4 3.6 3.7 5.6 8.6 5.6 13.8 0 5.1-2 10.1-5.6 13.7-3.8 3.6-8.7 5.6-13.8 5.6h-77.1c-5.1 0-10.1-2-13.8-5.6-3.7-3.6-5.7-8.6-5.7-13.7 0-5.2 2-10.1 5.7-13.8 3.7-3.6 8.7-5.5 13.8-5.4zm308.1 0c5.2-.1 10.1 1.8 13.8 5.4 3.6 3.7 5.7 8.6 5.7 13.8 0 5.1-2.1 10.1-5.7 13.7-3.7 3.6-8.6 5.6-13.8 5.6h-77c-5.2 0-10.2-2-13.8-5.6-3.7-3.6-5.7-8.6-5.7-13.7 0-5.2 2-10.1 5.7-13.8 3.6-3.6 8.6-5.5 13.8-5.4zm-308.1 76.9c5.2-.1 10.2 2 13.8 5.6 3.7 3.6 5.7 8.5 5.7 13.7 0 5.2-2 10.1-5.7 13.7-3.6 3.7-8.6 5.6-13.8 5.5h-77c-5.2.1-10.1-1.8-13.8-5.5-3.7-3.6-5.8-8.5-5.8-13.7 0-5.2 2.1-10.1 5.8-13.7 3.7-3.6 8.6-5.7 13.8-5.6zm154 0c5.2-.1 10.1 2 13.7 5.6 3.8 3.6 5.9 8.5 5.9 13.7 0 5.2-2.1 10.1-5.9 13.7-3.6 3.7-8.5 5.6-13.7 5.5h-77c-5.2.1-10.2-1.8-13.8-5.5-3.7-3.6-5.7-8.5-5.7-13.7 0-5.2 2-10.1 5.7-13.7 3.6-3.6 8.6-5.7 13.8-5.6zm154.1 0c5.1-.1 10 2 13.8 5.6 3.6 3.6 5.6 8.5 5.6 13.7 0 5.2-2 10.1-5.6 13.7-3.8 3.7-8.7 5.6-13.8 5.5h-77.1c-5.1.1-10.1-1.8-13.8-5.5-3.7-3.6-5.7-8.5-5.7-13.7 0-5.2 2-10.1 5.7-13.7 3.7-3.6 8.7-5.7 13.8-5.6zm-308.1 77.1c5.2-.1 10.2 1.9 13.8 5.5 3.7 3.7 5.8 8.5 5.8 13.7 0 5.1-2.1 10.1-5.8 13.7-3.6 3.6-8.6 5.7-13.8 5.6h-77c-5.1.1-10.1-2-13.8-5.6-3.7-3.6-5.7-8.6-5.7-13.7 0-5.2 2-10 5.7-13.7 3.7-3.6 8.7-5.6 13.8-5.5zm154 0c5.2-.1 10.2 1.9 13.8 5.5 3.7 3.7 5.8 8.5 5.8 13.7 0 5.1-2.1 10.1-5.8 13.7-3.6 3.6-8.6 5.7-13.8 5.6h-77c-5.2.1-10.1-2-13.7-5.6-3.7-3.6-5.8-8.6-5.8-13.7 0-5.2 2.1-10 5.8-13.7 3.6-3.6 8.5-5.6 13.7-5.5zm154.1 0c5.1-.1 10 1.9 13.8 5.5 3.6 3.7 5.7 8.5 5.7 13.7 0 5.1-2.1 10.1-5.7 13.7-3.8 3.6-8.7 5.7-13.8 5.6h-77.1c-5.1.1-10.1-2-13.8-5.6-3.7-3.6-5.6-8.6-5.6-13.7 0-5.2 1.9-10 5.6-13.7 3.7-3.6 8.7-5.6 13.8-5.5zm-308.1 77c5.3-.1 10.2 1.9 13.8 5.5 3.7 3.7 5.8 8.6 5.8 13.7 0 5.2-2.1 10.2-5.8 13.8-3.6 3.6-8.5 5.5-13.8 5.5h-76.9c-5.2 0-10.2-1.9-13.9-5.5-3.6-3.6-5.7-8.6-5.7-13.8 0-5.1 2.1-10 5.7-13.7 3.7-3.6 8.7-5.6 13.9-5.5zm154 0c5.1-.1 10.1 1.9 13.7 5.5 3.8 3.7 5.8 8.6 5.8 13.7 0 5.2-2 10.2-5.8 13.8-3.6 3.6-8.6 5.5-13.7 5.5h-77.1c-5.1 0-10.1-1.9-13.7-5.5-3.7-3.6-5.8-8.6-5.8-13.8 0-5.1 2.1-10 5.8-13.7 3.6-3.6 8.6-5.6 13.7-5.5zm154.1 0c5.2-.1 10.1 1.9 13.8 5.5 3.6 3.7 5.7 8.6 5.7 13.7 0 5.2-2.1 10.2-5.7 13.8-3.7 3.6-8.6 5.5-13.8 5.5h-77c-5.2 0-10.1-1.9-13.8-5.5-3.7-3.6-5.7-8.6-5.7-13.8 0-5.1 2-10 5.7-13.7 3.7-3.6 8.6-5.6 13.8-5.5z" style="fill:#fff"/></svg>